<?xml version="1.0" standalone="no"?>
<!DOCTYPE svg PUBLIC "-//W3C//DTD SVG 20010904//EN"
 "http://www.w3.org/TR/2001/REC-SVG-20010904/DTD/svg10.dtd">
<svg version="1.0" xmlns="http://www.w3.org/2000/svg"
 width="270.000000pt" height="310.000000pt" viewBox="0 0 270.000000 310.000000"
 preserveAspectRatio="xMidYMid meet">
<metadata>
Created by potrace 1.16, written by Peter Selinger 2001-2019
</metadata>
<g transform="translate(0.000000,310.000000) scale(0.100000,-0.100000)"
fill="#000000" stroke="none">
<path d="M1400 2950 l0 -50 -50 0 -50 0 0 -300 0 -300 -100 0 -100 0 0 -50 0
-50 -50 0 -50 0 0 -150 0 -150 50 0 50 0 0 -50 0 -50 50 0 50 0 0 -100 0 -100
50 0 50 0 0 -100 0 -100 -50 0 -50 0 0 -150 0 -150 -50 0 -50 0 0 100 0 100
-100 0 -100 0 0 50 0 50 -150 0 -150 0 0 -50 0 -50 -50 0 -50 0 0 -150 0 -150
50 0 50 0 0 -50 0 -50 100 0 100 0 0 -100 0 -100 -50 0 -50 0 0 -50 0 -50
-100 0 -100 0 0 -50 0 -50 -50 0 -50 0 0 -100 0 -100 50 0 50 0 0 -50 0 -50
300 0 300 0 0 100 0 100 -50 0 -50 0 0 50 0 50 200 0 200 0 0 50 0 50 150 0
150 0 0 -50 0 -50 -50 0 -50 0 0 -50 0 -50 -50 0 -50 0 0 -100 0 -100 300 0
300 0 0 50 0 50 50 0 50 0 0 100 0 100 -50 0 -50 0 0 50 0 50 -100 0 -100 0 0
50 0 50 50 0 50 0 0 50 0 50 100 0 100 0 0 100 0 100 100 0 100 0 0 50 0 50
50 0 50 0 0 150 0 150 -50 0 -50 0 0 50 0 50 -150 0 -150 0 0 350 0 350 -50 0
-50 0 0 100 0 100 -50 0 -50 0 0 100 0 100 -50 0 -50 0 0 50 0 50 -50 0 -50 0
0 100 0 100 -50 0 -50 0 0 50 0 50 -100 0 -100 0 0 -50z m200 -250 l0 -100 50
0 50 0 0 -50 0 -50 50 0 50 0 0 -100 0 -100 50 0 50 0 0 -100 0 -100 50 0 50
0 0 -350 0 -350 -50 0 -50 0 0 -100 0 -100 -50 0 -50 0 0 -100 0 -100 50 0 50
0 0 50 0 50 50 0 50 0 0 -50 0 -50 50 0 50 0 0 -50 0 -50 -100 0 -100 0 0 -50
0 -50 -100 0 -100 0 0 50 0 50 -50 0 -50 0 0 -50 0 -50 -50 0 -50 0 0 -50 0
-50 -100 0 -100 0 0 -50 0 -50 -100 0 -100 0 0 50 0 50 -50 0 -50 0 0 50 0 50
-50 0 -50 0 0 100 0 100 -150 0 -150 0 0 150 0 150 150 0 150 0 0 -50 0 -50
50 0 50 0 0 -50 0 -50 -50 0 -50 0 0 -50 0 -50 100 0 100 0 0 -50 0 -50 50 0
50 0 0 100 0 100 50 0 50 0 0 100 0 100 100 0 100 0 0 50 0 50 100 0 100 0 0
50 0 50 50 0 50 0 0 50 0 50 50 0 50 0 0 150 0 150 -50 0 -50 0 0 -50 0 -50
-100 0 -100 0 0 -50 0 -50 -150 0 -150 0 0 50 0 50 150 0 150 0 0 50 0 50
-150 0 -150 0 0 50 0 50 50 0 50 0 0 50 0 50 -50 0 -50 0 0 50 0 50 150 0 150
0 0 50 0 50 -100 0 -100 0 0 250 0 250 100 0 100 0 0 -100z m800 -1450 l0
-150 -150 0 -150 0 0 50 0 50 -50 0 -50 0 0 50 0 50 50 0 50 0 0 50 0 50 150
0 150 0 0 -150z m-1600 -800 l0 -50 100 0 100 0 0 -50 0 -50 -250 0 -250 0 0
100 0 100 150 0 150 0 0 -50z m1300 -50 l0 -100 -250 0 -250 0 0 50 0 50 100
0 100 0 0 50 0 50 150 0 150 0 0 -100z"/>
<path d="M1600 2050 l0 -150 50 0 50 0 0 150 0 150 -50 0 -50 0 0 -150z"/>
</g>
</svg>
